<svg width="248" height="248" viewBox="0 0 248 248" fill="none" xmlns="http://www.w3.org/2000/svg">
<mask id="mask0_26_1961" style="mask-type:alpha" maskUnits="userSpaceOnUse" x="0" y="124" width="124" height="124">
<path d="M0 248H62H124V186V124H62H0V186V248Z" fill="#10593E"/>
</mask>
<g mask="url(#mask0_26_1961)">
<path d="M0 248H62H124V186V124H62H0V186V248Z" fill="#10593E"/>
<circle cy="217" r="7.75" stroke="#C8A50A" stroke-width="0.5"/>
<circle cx="31" cy="248" r="7.75" stroke="#C8A50A" stroke-width="0.5"/>
<rect x="-16.2929" y="247.971" width="23" height="23" transform="rotate(-45 -16.2929 247.971)" stroke="#C8A50A"/>
<circle cx="31" cy="217" r="7.75" stroke="#C8A50A" stroke-width="0.5"/>
<rect x="14.7071" y="221.971" width="23" height="23" transform="rotate(-45 14.7071 221.971)" stroke="#C8A50A"/>
<rect x="14.7071" y="211.971" width="23" height="23" transform="rotate(-45 14.7071 211.971)" stroke="#C8A50A"/>
<rect x="-16.2929" y="123.971" width="23" height="23" transform="rotate(-45 -16.2929 123.971)" stroke="#C8A50A"/>
<circle cx="31" cy="124" r="7.75" stroke="#C8A50A" stroke-width="0.5"/>
<circle cy="155" r="7.75" stroke="#C8A50A" stroke-width="0.5"/>
<circle cx="31" cy="186" r="7.75" stroke="#C8A50A" stroke-width="0.5"/>
<rect x="-16.2929" y="185.971" width="23" height="23" transform="rotate(-45 -16.2929 185.971)" stroke="#C8A50A"/>
<circle cx="31" cy="155" r="7.75" stroke="#C8A50A" stroke-width="0.5"/>
<rect x="14.7071" y="159.971" width="23" height="23" transform="rotate(-45 14.7071 159.971)" stroke="#C8A50A"/>
<rect x="14.7071" y="149.971" width="23" height="23" transform="rotate(-45 14.7071 149.971)" stroke="#C8A50A"/>
<circle cx="124" cy="217" r="7.75" stroke="#C8A50A" stroke-width="0.5"/>
<circle cx="62" cy="217" r="7.75" stroke="#C8A50A" stroke-width="0.5"/>
<circle cx="93" cy="248" r="7.75" stroke="#C8A50A" stroke-width="0.5"/>
<rect x="45.7071" y="247.971" width="23" height="23" transform="rotate(-45 45.7071 247.971)" stroke="#C8A50A"/>
<rect x="107.707" y="247.971" width="23" height="23" transform="rotate(-45 107.707 247.971)" stroke="#C8A50A"/>
<circle cx="93" cy="217" r="7.75" stroke="#C8A50A" stroke-width="0.5"/>
<rect x="76.7071" y="221.971" width="23" height="23" transform="rotate(-45 76.7071 221.971)" stroke="#C8A50A"/>
<rect x="76.7071" y="211.971" width="23" height="23" transform="rotate(-45 76.7071 211.971)" stroke="#C8A50A"/>
<rect x="45.7071" y="123.971" width="23" height="23" transform="rotate(-45 45.7071 123.971)" stroke="#C8A50A"/>
<rect x="107.707" y="123.971" width="23" height="23" transform="rotate(-45 107.707 123.971)" stroke="#C8A50A"/>
<circle cx="124" cy="155" r="7.75" stroke="#C8A50A" stroke-width="0.5"/>
<circle cx="93" cy="124" r="7.75" stroke="#C8A50A" stroke-width="0.5"/>
<circle cx="62" cy="155" r="7.75" stroke="#C8A50A" stroke-width="0.5"/>
<circle cx="93" cy="186" r="7.75" stroke="#C8A50A" stroke-width="0.5"/>
<rect x="45.7071" y="185.971" width="23" height="23" transform="rotate(-45 45.7071 185.971)" stroke="#C8A50A"/>
<rect x="107.707" y="185.971" width="23" height="23" transform="rotate(-45 107.707 185.971)" stroke="#C8A50A"/>
<circle cx="93" cy="155" r="7.75" stroke="#C8A50A" stroke-width="0.5"/>
<rect x="76.7071" y="159.971" width="23" height="23" transform="rotate(-45 76.7071 159.971)" stroke="#C8A50A"/>
<rect x="76.7071" y="149.971" width="23" height="23" transform="rotate(-45 76.7071 149.971)" stroke="#C8A50A"/>
</g>
<mask id="mask1_26_1961" style="mask-type:alpha" maskUnits="userSpaceOnUse" x="0" y="0" width="124" height="124">
<path d="M0 124H62H124V62V0H62H0V62V124Z" fill="#10593E"/>
</mask>
<g mask="url(#mask1_26_1961)">
<path d="M0 124H62H124V62V0H62H0V62V124Z" fill="#136F5E"/>
<circle cy="93" r="7.75" stroke="#C8A50A" stroke-width="0.5"/>
<circle cx="31" cy="124" r="7.75" stroke="#C8A50A" stroke-width="0.5"/>
<rect x="-16.2929" y="123.971" width="23" height="23" transform="rotate(-45 -16.2929 123.971)" stroke="#C8A50A"/>
<circle cx="31" cy="93" r="7.75" stroke="#C8A50A" stroke-width="0.5"/>
<rect x="14.7071" y="97.9706" width="23" height="23" transform="rotate(-45 14.7071 97.9706)" stroke="#C8A50A"/>
<rect x="14.7071" y="87.9706" width="23" height="23" transform="rotate(-45 14.7071 87.9706)" stroke="#C8A50A"/>
<rect x="-16.2929" y="-0.0294189" width="23" height="23" transform="rotate(-45 -16.2929 -0.0294189)" stroke="#C8A50A"/>
<circle cx="31" r="7.75" stroke="#C8A50A" stroke-width="0.5"/>
<circle cy="31" r="7.75" stroke="#C8A50A" stroke-width="0.5"/>
<circle cx="31" cy="62" r="7.75" stroke="#C8A50A" stroke-width="0.5"/>
<rect x="-16.2929" y="61.9706" width="23" height="23" transform="rotate(-45 -16.2929 61.9706)" stroke="#C8A50A"/>
<circle cx="31" cy="31" r="7.75" stroke="#C8A50A" stroke-width="0.5"/>
<rect x="14.7071" y="35.9706" width="23" height="23" transform="rotate(-45 14.7071 35.9706)" stroke="#C8A50A"/>
<rect x="14.7071" y="25.9706" width="23" height="23" transform="rotate(-45 14.7071 25.9706)" stroke="#C8A50A"/>
<circle cx="124" cy="93" r="7.75" stroke="#C8A50A" stroke-width="0.5"/>
<circle cx="62" cy="93" r="7.75" stroke="#C8A50A" stroke-width="0.5"/>
<circle cx="93" cy="124" r="7.75" stroke="#C8A50A" stroke-width="0.5"/>
<rect x="45.7071" y="123.971" width="23" height="23" transform="rotate(-45 45.7071 123.971)" stroke="#C8A50A"/>
<rect x="107.707" y="123.971" width="23" height="23" transform="rotate(-45 107.707 123.971)" stroke="#C8A50A"/>
<circle cx="93" cy="93" r="7.75" stroke="#C8A50A" stroke-width="0.5"/>
<rect x="76.7071" y="97.9706" width="23" height="23" transform="rotate(-45 76.7071 97.9706)" stroke="#C8A50A"/>
<rect x="76.7071" y="87.9706" width="23" height="23" transform="rotate(-45 76.7071 87.9706)" stroke="#C8A50A"/>
<rect x="45.7071" y="-0.0294189" width="23" height="23" transform="rotate(-45 45.7071 -0.0294189)" stroke="#C8A50A"/>
<rect x="107.707" y="-0.0294189" width="23" height="23" transform="rotate(-45 107.707 -0.0294189)" stroke="#C8A50A"/>
<circle cx="124" cy="31" r="7.75" stroke="#C8A50A" stroke-width="0.5"/>
<circle cx="93" r="7.75" stroke="#C8A50A" stroke-width="0.5"/>
<circle cx="62" cy="31" r="7.75" stroke="#C8A50A" stroke-width="0.5"/>
<circle cx="93" cy="62" r="7.75" stroke="#C8A50A" stroke-width="0.5"/>
<rect x="45.7071" y="61.9706" width="23" height="23" transform="rotate(-45 45.7071 61.9706)" stroke="#C8A50A"/>
<rect x="107.707" y="61.9706" width="23" height="23" transform="rotate(-45 107.707 61.9706)" stroke="#C8A50A"/>
<circle cx="93" cy="31" r="7.75" stroke="#C8A50A" stroke-width="0.5"/>
<rect x="76.7071" y="35.9706" width="23" height="23" transform="rotate(-45 76.7071 35.9706)" stroke="#C8A50A"/>
<rect x="76.7071" y="25.9706" width="23" height="23" transform="rotate(-45 76.7071 25.9706)" stroke="#C8A50A"/>
</g>
<mask id="mask2_26_1961" style="mask-type:alpha" maskUnits="userSpaceOnUse" x="124" y="124" width="124" height="124">
<path d="M124 248H186H248V186V124H186H124V186V248Z" fill="#10593E"/>
</mask>
<g mask="url(#mask2_26_1961)">
<path d="M124 248H186H248V186V124H186H124V186V248Z" fill="#136F5E"/>
<circle cx="124" cy="217" r="7.75" stroke="#C8A50A" stroke-width="0.5"/>
<circle cx="155" cy="248" r="7.75" stroke="#C8A50A" stroke-width="0.5"/>
<rect x="107.707" y="247.971" width="23" height="23" transform="rotate(-45 107.707 247.971)" stroke="#C8A50A"/>
<circle cx="155" cy="217" r="7.75" stroke="#C8A50A" stroke-width="0.5"/>
<rect x="138.707" y="221.971" width="23" height="23" transform="rotate(-45 138.707 221.971)" stroke="#C8A50A"/>
<rect x="138.707" y="211.971" width="23" height="23" transform="rotate(-45 138.707 211.971)" stroke="#C8A50A"/>
<rect x="107.707" y="123.971" width="23" height="23" transform="rotate(-45 107.707 123.971)" stroke="#C8A50A"/>
<circle cx="155" cy="124" r="7.75" stroke="#C8A50A" stroke-width="0.5"/>
<circle cx="124" cy="155" r="7.75" stroke="#C8A50A" stroke-width="0.5"/>
<circle cx="155" cy="186" r="7.75" stroke="#C8A50A" stroke-width="0.5"/>
<rect x="107.707" y="185.971" width="23" height="23" transform="rotate(-45 107.707 185.971)" stroke="#C8A50A"/>
<circle cx="155" cy="155" r="7.75" stroke="#C8A50A" stroke-width="0.5"/>
<rect x="138.707" y="159.971" width="23" height="23" transform="rotate(-45 138.707 159.971)" stroke="#C8A50A"/>
<rect x="138.707" y="149.971" width="23" height="23" transform="rotate(-45 138.707 149.971)" stroke="#C8A50A"/>
<circle cx="248" cy="217" r="7.75" stroke="#C8A50A" stroke-width="0.5"/>
<circle cx="186" cy="217" r="7.75" stroke="#C8A50A" stroke-width="0.5"/>
<circle cx="217" cy="248" r="7.75" stroke="#C8A50A" stroke-width="0.5"/>
<rect x="169.707" y="247.971" width="23" height="23" transform="rotate(-45 169.707 247.971)" stroke="#C8A50A"/>
<rect x="231.707" y="247.971" width="23" height="23" transform="rotate(-45 231.707 247.971)" stroke="#C8A50A"/>
<circle cx="217" cy="217" r="7.75" stroke="#C8A50A" stroke-width="0.5"/>
<rect x="200.707" y="221.971" width="23" height="23" transform="rotate(-45 200.707 221.971)" stroke="#C8A50A"/>
<rect x="200.707" y="211.971" width="23" height="23" transform="rotate(-45 200.707 211.971)" stroke="#C8A50A"/>
<rect x="169.707" y="123.971" width="23" height="23" transform="rotate(-45 169.707 123.971)" stroke="#C8A50A"/>
<rect x="231.707" y="123.971" width="23" height="23" transform="rotate(-45 231.707 123.971)" stroke="#C8A50A"/>
<circle cx="248" cy="155" r="7.75" stroke="#C8A50A" stroke-width="0.5"/>
<circle cx="217" cy="124" r="7.75" stroke="#C8A50A" stroke-width="0.5"/>
<circle cx="186" cy="155" r="7.75" stroke="#C8A50A" stroke-width="0.5"/>
<circle cx="217" cy="186" r="7.75" stroke="#C8A50A" stroke-width="0.5"/>
<rect x="169.707" y="185.971" width="23" height="23" transform="rotate(-45 169.707 185.971)" stroke="#C8A50A"/>
<rect x="231.707" y="185.971" width="23" height="23" transform="rotate(-45 231.707 185.971)" stroke="#C8A50A"/>
<circle cx="217" cy="155" r="7.75" stroke="#C8A50A" stroke-width="0.5"/>
<rect x="200.707" y="159.971" width="23" height="23" transform="rotate(-45 200.707 159.971)" stroke="#C8A50A"/>
<rect x="200.707" y="149.971" width="23" height="23" transform="rotate(-45 200.707 149.971)" stroke="#C8A50A"/>
</g>
<mask id="mask3_26_1961" style="mask-type:alpha" maskUnits="userSpaceOnUse" x="124" y="0" width="124" height="124">
<path d="M124 124H186H248V62V0H186H124V62V124Z" fill="#10593E"/>
</mask>
<g mask="url(#mask3_26_1961)">
<path d="M124 124H186H248V62V0H186H124V62V124Z" fill="#10593E"/>
<circle cx="124" cy="93" r="7.75" stroke="#C8A50A" stroke-width="0.5"/>
<circle cx="155" cy="124" r="7.75" stroke="#C8A50A" stroke-width="0.5"/>
<rect x="107.707" y="123.971" width="23" height="23" transform="rotate(-45 107.707 123.971)" stroke="#C8A50A"/>
<circle cx="155" cy="93" r="7.75" stroke="#C8A50A" stroke-width="0.5"/>
<rect x="138.707" y="97.9706" width="23" height="23" transform="rotate(-45 138.707 97.9706)" stroke="#C8A50A"/>
<rect x="138.707" y="87.9706" width="23" height="23" transform="rotate(-45 138.707 87.9706)" stroke="#C8A50A"/>
<rect x="107.707" y="-0.0294189" width="23" height="23" transform="rotate(-45 107.707 -0.0294189)" stroke="#C8A50A"/>
<circle cx="155" r="7.75" stroke="#C8A50A" stroke-width="0.5"/>
<circle cx="124" cy="31" r="7.75" stroke="#C8A50A" stroke-width="0.5"/>
<circle cx="155" cy="62" r="7.75" stroke="#C8A50A" stroke-width="0.5"/>
<rect x="107.707" y="61.9706" width="23" height="23" transform="rotate(-45 107.707 61.9706)" stroke="#C8A50A"/>
<circle cx="155" cy="31" r="7.75" stroke="#C8A50A" stroke-width="0.5"/>
<rect x="138.707" y="35.9706" width="23" height="23" transform="rotate(-45 138.707 35.9706)" stroke="#C8A50A"/>
<rect x="138.707" y="25.9706" width="23" height="23" transform="rotate(-45 138.707 25.9706)" stroke="#C8A50A"/>
<circle cx="248" cy="93" r="7.75" stroke="#C8A50A" stroke-width="0.5"/>
<circle cx="186" cy="93" r="7.75" stroke="#C8A50A" stroke-width="0.5"/>
<circle cx="217" cy="124" r="7.75" stroke="#C8A50A" stroke-width="0.5"/>
<rect x="169.707" y="123.971" width="23" height="23" transform="rotate(-45 169.707 123.971)" stroke="#C8A50A"/>
<rect x="231.707" y="123.971" width="23" height="23" transform="rotate(-45 231.707 123.971)" stroke="#C8A50A"/>
<circle cx="217" cy="93" r="7.75" stroke="#C8A50A" stroke-width="0.5"/>
<rect x="200.707" y="97.9706" width="23" height="23" transform="rotate(-45 200.707 97.9706)" stroke="#C8A50A"/>
<rect x="200.707" y="87.9706" width="23" height="23" transform="rotate(-45 200.707 87.9706)" stroke="#C8A50A"/>
<rect x="169.707" y="-0.0294189" width="23" height="23" transform="rotate(-45 169.707 -0.0294189)" stroke="#C8A50A"/>
<rect x="231.707" y="-0.0294189" width="23" height="23" transform="rotate(-45 231.707 -0.0294189)" stroke="#C8A50A"/>
<circle cx="248" cy="31" r="7.75" stroke="#C8A50A" stroke-width="0.5"/>
<circle cx="217" r="7.75" stroke="#C8A50A" stroke-width="0.5"/>
<circle cx="186" cy="31" r="7.75" stroke="#C8A50A" stroke-width="0.5"/>
<circle cx="217" cy="62" r="7.75" stroke="#C8A50A" stroke-width="0.5"/>
<rect x="169.707" y="61.9706" width="23" height="23" transform="rotate(-45 169.707 61.9706)" stroke="#C8A50A"/>
<rect x="231.707" y="61.9706" width="23" height="23" transform="rotate(-45 231.707 61.9706)" stroke="#C8A50A"/>
<circle cx="217" cy="31" r="7.75" stroke="#C8A50A" stroke-width="0.5"/>
<rect x="200.707" y="35.9706" width="23" height="23" transform="rotate(-45 200.707 35.9706)" stroke="#C8A50A"/>
<rect x="200.707" y="25.9706" width="23" height="23" transform="rotate(-45 200.707 25.9706)" stroke="#C8A50A"/>
</g>
</svg>
