<svg width="893" height="424" viewBox="0 0 893 424" fill="none" xmlns="http://www.w3.org/2000/svg">
<path d="M756 110.5C807.667 141.5 889.6 227.6 804 324C697 444.5 820.068 433.447 860 381.5C916.5 308 889.5 138.5 764.5 103" stroke="#D02828" stroke-width="9" stroke-linecap="round"/>
<path fill-rule="evenodd" clip-rule="evenodd" d="M708 0H0.5L87.5 100L0.5 200H708L766 150V100V50L708 0ZM730.5 115C739.06 115 746 108.06 746 99.5C746 90.9396 739.06 84 730.5 84C721.94 84 715 90.9396 715 99.5C715 108.06 721.94 115 730.5 115Z" fill="#ECECEC"/>
<path d="M741 110H772" stroke="#D02828" stroke-width="9" stroke-linecap="round"/>
<path d="M741 102H772" stroke="#C02424" stroke-width="9" stroke-linecap="round"/>
<path d="M741 94H772" stroke="#D02828" stroke-width="9" stroke-linecap="round"/>
</svg>
